<?xml version="1.0" encoding="UTF-8" standalone="no"?>
<!-- Generator: Adobe Illustrator 13.0.0, SVG Export Plug-In . SVG Version: 6.00 Build 14948)  -->

<svg
   xmlns:dc="http://purl.org/dc/elements/1.1/"
   xmlns:cc="http://creativecommons.org/ns#"
   xmlns:rdf="http://www.w3.org/1999/02/22-rdf-syntax-ns#"
   xmlns:svg="http://www.w3.org/2000/svg"
   xmlns="http://www.w3.org/2000/svg"
   xmlns:sodipodi="http://sodipodi.sourceforge.net/DTD/sodipodi-0.dtd"
   xmlns:inkscape="http://www.inkscape.org/namespaces/inkscape"
   version="1.1"
   x="0px"
   y="0px"
   width="800.7px"
   height="276.759px"
   viewBox="0 0 800.7 276.759"
   enable-background="new 0 0 800.7 276.759"
   xml:space="preserve"
   id="svg2"
   sodipodi:version="0.32"
   inkscape:version="0.47 r22583"
   sodipodi:docname="logo.svg"
   inkscape:output_extension="org.inkscape.output.svg.inkscape"
   inkscape:export-filename="/home/loic/private/outflop/pokersource/logo poker NB/logo-145x50.png"
   inkscape:export-xdpi="16.259607"
   inkscape:export-ydpi="16.259607"><metadata
   id="metadata47"><rdf:RDF><cc:Work
       rdf:about=""><dc:format>image/svg+xml</dc:format><dc:type
         rdf:resource="http://purl.org/dc/dcmitype/StillImage" /><dc:title></dc:title></cc:Work></rdf:RDF></metadata><defs
   id="defs45"><inkscape:perspective
   sodipodi:type="inkscape:persp3d"
   inkscape:vp_x="0 : 138.3795 : 1"
   inkscape:vp_y="0 : 1000 : 0"
   inkscape:vp_z="800.70001 : 138.3795 : 1"
   inkscape:persp3d-origin="400.35001 : 92.253001 : 1"
   id="perspective49" />
	
	
	
	
	
	
	
	
	
	
	

	

		
		
		
		
		
		
		
	</defs><sodipodi:namedview
   inkscape:window-height="728"
   inkscape:window-width="1219"
   inkscape:pageshadow="2"
   inkscape:pageopacity="0.0"
   guidetolerance="10.0"
   gridtolerance="10.0"
   objecttolerance="10.0"
   borderopacity="1.0"
   bordercolor="#666666"
   pagecolor="#ffffff"
   id="base"
   showgrid="false"
   inkscape:zoom="0.48836024"
   inkscape:cx="473.18721"
   inkscape:cy="135.48366"
   inkscape:window-x="0"
   inkscape:window-y="27"
   inkscape:current-layer="svg2"
   inkscape:window-maximized="0" />
<path
   d="m 786.6,36.959 c -0.1,-1.5 -0.2,-3 -0.5,-4.4 -0.2,-1.5 -0.6,-2.9 -1,-4.2 -0.5,-2 -1.2,-4.1 -2,-6 -0.6,-1.4 -1.2,-2.7 -1.9,-3.9 -0.4,-0.8 -1,-1.7 -1.4,-2.5 -2.7,-3.8 -5.8,-7 -9.7,-9.4 -4.2,-2.4 -9.3,-4.1 -15.2,-4.9 -2.9,-0.4 -5.9,-0.7 -8.9,-1 h -89.8 c 0,14.3 0,28.5 0,42.8 0,14.3 0,28.7 0,43.1 0,14.3 -0.1,28.7 -0.1,43 -0.1,4.6 0,9.1 0.3,13.4 H 706 v -5.3 c 0,-6.3 0,-12.7 0,-19.1 l -0.1,-15.7 c 0,-0.8 0,-1.6 0,-2.3 -0.1,-2 0,-3.8 0.1,-5.6 0.1,-2.1 0.3,-4.1 0.6,-6 9.2,5.2 16,13 20.5,23.4 4.1,9.7 8.8,19.2 13.8,28.6 0.3,0.6 0.7,1.4 1.2,2 h 58.6 c -2.6,-5.4 -4,-8.4 -4.2,-8.9 -5,-9.5 -9.7,-19 -14.3,-28.6 -4.5,-9.5 -10.4,-17.8 -17.7,-24.5 l -0.6,-0.5 c 6.1,-2.8 11.2,-6.9 15.1,-12.3 2.2,-2.9 3.9,-6 5.1,-9.2 0.3,-0.7 0.4,-1.4 0.7,-2.1 0.4,-1.4 0.7,-2.9 1,-4.3 0.3,-2.2 0.7,-4.5 0.8,-6.7 0.2,-1.4 0.3,-2.9 0.3,-4.4 0,-1.5 -0.1,-3 -0.3,-4.5 z m -80.1,-1.3 h 0.4 c 4,-0.1 7.4,-0.1 10.5,-0.1 3,0 6.3,0.3 9.8,0.9 3.7,0.5 6,1.8 7.2,3.7 1.1,2 1.4,3.8 1,5.4 -0.2,0.4 -0.3,0.7 -0.4,1 -1,2.4 -2.6,4.1 -4.6,5.4 -0.5,0.2 -0.9,0.5 -1.3,0.8 -3,1.6 -6.7,2.3 -11.1,2.3 -0.1,0 -0.1,0 -0.2,0 -3.9,0 -7.8,0 -11.7,0 v -0.1 c 0,-6.5 0,-13 0,-19.4 0,0 0,0 0.1,0 0,0 0.2,0 0.3,0.1 z"
   id="path7"
   style="fill:#81ac00;fill-opacity:1" /><path
   d="m 633,36.759 c 0,-0.1 0,-0.1 0,-0.2 0,-11.9 0,-23.9 0,-35.9 H 513.1 c 0,14.3 0,28.5 0,42.8 0,14.3 0,28.7 0,43.1 0,14.3 0,28.7 0,43 0,4.5 0,9 0,13.4 h 122 c 0,-6.3 0,-12.5 0,-18.8 l -0.1,-19 c -9.7,0 -19.4,0 -29.1,0 -14.4,0 -28.8,0 -43.1,0 0,0 0,-0.1 0,-0.2 0.1,-6.3 0.1,-12.5 0,-18.8 14.3,0 28.7,0 43.1,0.1 7.5,0.1 14.7,-0.1 21.9,-0.3 0.1,0 0.2,0 0.2,0 v -0.1 c 0.1,-11.9 0,-23.5 -0.2,-35 -7.3,0 -14.6,0 -21.9,0 -14.4,0 -28.8,0 -43.1,0 0,-0.1 0,-0.2 0,-0.3 0.1,-4.5 0.1,-9 0,-13.6 14.3,0 28.7,0 43.1,0.1 9.2,0 18.2,-0.1 27.1,-0.3 z"
   id="path9"
   style="fill:#81ac00;fill-opacity:1" /><path
   d="m 665.2,183.459 c -0.4,-1 -0.8,-2 -1.3,-2.9 -3.7,-6.6 -9.4,-11 -17.3,-13.3 -3.7,-0.9 -7.6,-1.5 -11.6,-2 -3.5,-0.2 -7,-0.2 -10.5,0.1 -1.5,0.2 -3,0.2 -4.5,0.4 -0.1,0 -0.2,0 -0.3,0 -1.3,0.2 -2.7,0.4 -4.1,0.7 -2.6,0.5 -5.1,1.2 -7.5,2.1 -10.1,4.2 -17.9,10.7 -23.2,19.7 -4,6.8 -6.9,14.7 -8.9,23.5 -0.2,1.1 -0.4,2.1 -0.5,3.2 -0.2,1 -0.4,2 -0.5,3 -0.1,0.4 -0.2,0.9 -0.3,1.4 -0.1,0.9 -0.2,1.7 -0.3,2.5 0,0.1 0,0.1 0,0.2 0,0.8 -0.1,1.7 -0.2,2.6 0,1 -0.1,2 -0.1,3.1 0,0.8 0,1.6 0,2.4 0,0.7 0,1.5 0,2.2 0,0.4 0,0.8 0,1.1 0,0.4 0,0.8 0,1.3 0,1.3 0,2.5 0.1,3.7 0,1.3 0.2,2.5 0.3,3.8 0.2,1.1 0.4,2.3 0.5,3.5 0.2,1.1 0.5,2.2 0.7,3.3 0.1,0.5 0.2,0.9 0.3,1.3 1.8,6.5 4.8,11.6 8.9,15.7 1.4,1.5 3.1,2.9 4.9,3.9 1.3,0.6 2.7,1.3 4,1.8 2.3,0.9 4.6,1.6 7,2.2 1.4,0.4 3,0.7 4.4,0.9 3.1,0.6 6.3,0.9 9.4,1 3,0 6,-0.2 8.9,-0.8 2.7,-0.4 5.4,-1.1 8.1,-2.1 1.9,-0.6 3.8,-1.4 5.5,-2.2 1.8,-0.8 3.4,-1.8 5,-2.9 1.8,-1.3 3.5,-2.5 5.1,-4 1.4,-1.3 2.7,-2.5 3.9,-3.9 3,-3.6 5.4,-7.4 7.4,-11.7 0.4,-0.7 0.7,-1.4 1.1,-2.2 0.6,-1.4 1.3,-2.8 1.9,-4.2 1.5,-3 2.7,-6 3.6,-9.1 l 0.2,-0.4 -27.2,-3.5 -0.8,2.4 c -0.3,0.6 -0.4,1.2 -0.7,1.9 -0.2,0.6 -0.6,1.4 -0.8,2.1 -0.3,0.6 -0.7,1.2 -1,1.9 -0.3,0.6 -0.6,1.2 -0.9,1.9 -0.7,1.1 -1.4,2.2 -2,3.2 -0.7,1 -1.4,2 -2.1,2.8 -0.4,0.5 -0.8,0.9 -1.3,1.3 -0.5,0.5 -1,1.1 -1.6,1.6 -0.6,0.4 -1.2,0.9 -1.8,1.4 -1.9,1.2 -3.9,2.2 -6.1,2.8 -3.9,1.2 -7.5,0.7 -10.9,-1.5 -3.1,-2.1 -5.5,-4.9 -7,-8.4 -1.2,-3.2 -1.8,-6.8 -1.6,-10.9 0.2,-3.1 0.6,-6.4 1.1,-9.6 0.6,-3.2 1.4,-6.5 2.5,-10 1.7,-4.8 3.7,-9.2 6.1,-13.1 5.4,-8.7 13.4,-11.7 24.1,-9.1 3.2,0.7 5.7,2.5 7.5,5.3 1.4,2.2 2.4,5.4 3.1,9.4 l 0.3,2.9 25,-1.8 v -1.1 c 0,-0.1 0,-0.2 0,-0.3 0,-0.3 0,-0.7 -0.1,-1 -0.2,-4.6 -0.9,-9 -2.1,-13.4 -0.1,-0.5 -0.2,-1 -0.4,-1.4 -0.4,-1.6 -0.9,-3.2 -1.4,-4.7 z"
   id="path11"
   style="fill:#81ac00;fill-opacity:1" /><path
   d="m 696.7,220.959 c -0.6,5 -0.6,10.4 -0.1,16 0.4,5.7 1.6,11.2 3.6,16.6 2.3,5.8 5.8,10.5 10.4,14.1 0,0.1 0.2,0.2 0.2,0.2 1.4,0.9 2.8,1.8 4.3,2.6 2.5,1.3 5.1,2.5 7.9,3.5 3.5,1.2 7,2 10.8,2.5 3.6,0.4 7.2,0.4 10.8,0 3.8,-0.6 7.5,-1.4 11.1,-2.5 3.2,-0.9 6.3,-2.1 9.3,-3.5 1.6,-0.7 3,-1.7 4.5,-2.6 1.6,-1 3.1,-2.1 4.5,-3.3 1.3,-1.1 2.5,-2.3 3.8,-3.6 0.2,-0.2 0.4,-0.4 0.7,-0.7 1.9,-2.1 3.5,-4.2 5,-6.5 1,-1.4 1.8,-2.8 2.6,-4.2 1.8,-3.2 3,-5.9 3.9,-8.2 0.7,-2.3 1.2,-3.9 1.4,-4.8 0.2,-1 0.3,-1.7 0.4,-2 l -26.6,-2.7 -1,2.3 c -3.7,7.8 -9.3,13.5 -16.8,17.2 -1.9,0.9 -3.9,1.3 -5.9,1.2 -11.3,-0.7 -17.9,-6.7 -19.7,-18 l -0.4,-3.5 v -2.7 c 14.3,0 28.7,0 43.1,0 9.8,0 19.6,0 29.4,0 0.1,-0.5 0.3,-1.2 0.6,-2.2 0.5,-3.3 0.9,-6.6 1,-9.9 0,-1 0.1,-2 0.1,-3 0.1,-1.9 0.1,-3.8 0,-5.7 0,-3 -0.2,-5.9 -0.8,-8.8 -0.4,-2.7 -1,-5.2 -1.7,-7.7 -0.7,-3 -1.9,-5.7 -3.2,-8.3 -1.6,-2.8 -3.5,-5.3 -5.9,-7.6 -2,-1.9 -4.1,-3.5 -6.5,-4.7 -1.3,-0.7 -2.6,-1.4 -4,-1.9 -6.4,-2.3 -13.3,-3.6 -20.7,-3.8 -7.4,-0.3 -14.9,1.2 -22.4,4.3 -9.3,3.9 -16.5,9.8 -21.8,17.7 -4.1,6 -6.9,12 -8.6,17.8 -1.7,5.9 -2.8,11.3 -3.3,16.4 z m 61.4,-32.7 c 3.6,0.8 6.5,2.8 8.7,6 2.2,3 3.7,6.5 4.3,10.3 0.3,1 0.4,2 0.5,3.2 0,0 0,0.1 0,0.2 -0.1,0 -0.2,0 -0.4,0 H 727 c 0,-0.1 0,-0.2 0,-0.2 1.5,-4 3.6,-7.3 6.2,-10.2 1.4,-1.3 2.8,-2.5 4.2,-3.6 3,-2.2 6.1,-3.9 9.5,-5.2 3.6,-1.3 7.4,-1.5 11.2,-0.5 z"
   id="path13"
   style="fill:#81ac00;fill-opacity:1" /><path
   d="m 365.1,167.559 c -0.2,1 -0.5,2 -0.7,3 -2.5,12 -5,23.8 -7.5,35.5 -2.2,10.2 -4.2,20.6 -6,31.1 -1,5.6 -1.1,11.1 -0.7,16.7 0.3,3.8 1.4,7.3 3.1,10.7 1.1,1.9 2.3,3.4 3.8,4.9 3.4,2.8 7.3,4.7 11.5,5.5 1.1,0.2 2.1,0.4 3.2,0.5 h -0.2 c 0.1,0 0.2,0 0.2,0.1 6.1,0.9 12.2,0.6 18.2,-0.8 1.3,-0.4 2.6,-0.7 3.9,-1 5.5,-1.7 10.1,-4.2 13.9,-7.4 0,-0.1 0,-0.1 0.1,-0.1 0,2.3 0,4.5 0,6.8 0,0.1 0,0.2 0,0.2 0,0 0.1,0 0.2,0 0.6,0 1.3,0 2,0 h 20.8 l 0,0 c 0.5,-2.2 1,-4.4 1.4,-6.6 2.1,-9.6 4.1,-19.3 6.1,-28.9 2.5,-12 4.9,-23.9 7.4,-35.7 1.8,-8.4 3.6,-16.9 5.3,-25.4 l 1.8,-8.9 c 0,0 0,0 0,-0.1 h -25.7 c 0,0.1 0,0.2 0,0.3 -1.6,7.5 -3.3,15.1 -4.7,22.8 -2.4,12.1 -5.3,23.8 -8.7,35 -2.1,6.9 -5.4,12.8 -9.8,17.5 -0.6,0.7 -1.3,1.3 -1.9,1.9 -0.7,0.7 -1.4,1.3 -2.1,1.8 -0.7,0.6 -1.4,1.2 -2.1,1.7 -0.8,0.5 -1.6,1 -2.4,1.5 -0.9,0.5 -1.8,1.1 -2.7,1.5 -0.4,0.3 -0.9,0.5 -1.3,0.7 -0.4,0.3 -0.9,0.5 -1.3,0.6 -1.1,0.4 -2.2,0.8 -3.3,1.2 -1,0.2 -2,0.2 -3,0.2 -0.5,-0.2 -1.1,-0.3 -1.7,-0.5 -1.2,-0.2 -2.3,-0.8 -3.3,-1.5 -0.9,-0.7 -1.5,-1.5 -2.1,-2.2 0,-0.1 -0.2,-0.2 -0.2,-0.3 -0.5,-1 -0.8,-2.1 -0.9,-3.2 -0.1,-0.3 -0.1,-0.5 -0.1,-0.8 l 4.8,-28.3 c 0.7,-3.2 1.4,-6.3 2,-9.3 2,-9.4 4,-18.8 5.9,-28.2 l 2.4,-12.5 h -25.6 z"
   id="path15"
   style="fill:#81ac00;fill-opacity:1" /><path
   d="M 521.1,167.559 H 521 c -7.5,0 -14.9,0 -22.2,0 -1.8,8.7 -3.6,17.4 -5.4,26.1 -2.5,11.8 -5,23.6 -7.5,35.6 -0.3,1.5 -0.5,3 -0.8,4.5 -0.2,0.9 -0.5,1.8 -0.7,2.8 -1.4,7.1 -2.9,14.2 -4.5,21.3 l -3,15.4 h 3 c 0.4,0 0.8,0 1.2,0 h 20.7 l 0,0 c 0.6,-3 1.3,-6 2,-9 1.8,-8.8 3.6,-17.6 5.3,-26.6 2.3,-12.2 6,-23 11,-32.4 3,-5.4 6.9,-9.7 11.7,-12.7 0.6,-0.3 1.2,-0.6 1.8,-1 2.4,-1.1 4.8,-1.6 7.4,-1.3 1.6,0.3 2.8,0.5 3.5,0.8 0.7,0.2 1.6,0.7 2.7,1.2 0.3,0.2 0.7,0.3 0.9,0.5 l -0.3,-0.2 3.4,2 11.7,-23.6 c -1.5,-0.8 -2.5,-1.4 -3.1,-1.7 -3.5,-1.9 -7.2,-3.2 -11,-3.8 -3.9,-0.6 -7.7,-0.7 -11.6,-0.3 -3.6,0.4 -7,1.4 -10.2,3.1 -1.5,1 -3.4,2.5 -5.5,4.6 0,0.1 0,0.1 0,0.1 0,-0.1 0,-0.1 0,-0.1 0,-1.9 -0.1,-3.7 -0.4,-5.3 z"
   id="path17"
   style="fill:#81ac00;fill-opacity:1" /><path
   d="m 498.9,7.959 6.9,-7.3 h -70.4 c -5.3,6.2 -10.5,12.2 -15.8,18.4 -6.6,7.8 -13.2,15.5 -20,23.1 0,-1.1 0,-2.1 -0.1,-3.2 0.1,-12.9 -0.1,-25.6 -0.3,-38.3 h -49.3 c -0.21,6.536 -0.3,15.099 -0.3,28.2 0.2,14.5 0.2,28.8 -0.1,43 -0.4,-0.8 -0.7,-1.5 -1.1,-2.2 -5.2,-9.2 -11.1,-17.6 -17.9,-25.1 -6.9,-7.6 -14.4,-14.4 -22.9,-20.2 -8.4,-5.8 -17.5,-10.8 -27.5,-14.8 0,0 -0.1,0 -0.2,-0.1 -1,-0.3 -2,-0.8 -3,-1.1 -7,-2.4 -14.2,-4.2 -21.5,-5.6 -6.9,-1.4 -14,-2.2 -21.2,-2.6 -7.2,-0.3 -14.5,-0.2 -21.8,0.5 -7.8,0.7 -15.5,2.2 -23.1,4.2 -4.1,1 -8.1,2.2 -12.1,3.5 -1,0.3 -1.9,0.8 -2.9,1.1 0,0.1 0,0.1 -0.1,0.1 -10.1,4.1 -19.4,9.1 -27.8,15 -6.8,4.8 -13.1,10.1 -18.9,15.9 -0.5,0.5 -1.1,1.1 -1.7,1.7 -0.8,0.8 -1.6,1.7 -2.3,2.5 v 0.2 h -0.1 c 0,0 -0.1,-0.9 -0.2,-2.7 l -0.1,-3.3 v 1.1 c -0.1,-0.4 -0.1,-1 -0.1,-1.4 0,-2.3 -0.3,-4.6 -0.8,-7 -1.2,-6.9 -3.6,-12.6 -7.2,-17 -4,-5.1 -9.4,-8.8 -16.2,-11.2 -0.6,-0.2 -1.3,-0.4 -2,-0.6 -0.8,-0.2 -1.5,-0.4 -2.1,-0.6 -0.7,-0.2 -1.5,-0.3 -2.2,-0.5 -0.7,-0.1 -1.4,-0.2 -2.2,-0.3 -0.7,-0.2 -1.5,-0.2 -2.2,-0.4 -1.3,-0.1 -2.6,-0.3 -3.8,-0.4 -1.1,0 -2.1,-0.2 -3.2,-0.2 -1.3,0 -2.6,0 -3.8,-0.1 -0.7,0 -1.4,0 -2.1,0 -0.7,0 -1.4,0 -2.1,0 -0.7,0 -1.4,0 -2.1,0 -0.8,0 -1.8,0 -2.6,0 H 0.5 v 143.3 h 16.9 c 4.1,0 6.2,0 6.2,0 0,0.1 0,0.1 0,0.2 -2.2,2.8 -3.9,6.2 -5.2,10 -1.1,3.1 -1.8,6.2 -2.1,9.3 -0.4,3.2 -0.2,6.5 0.4,10 0.6,3.5 1.4,6.6 2.4,9.5 3,8.4 8.3,14.5 15.9,18.5 9.4,5 19.1,9.3 29.5,12.9 6.5,2.3 11.5,5.8 15.3,10.6 1.2,1.4 2.4,3 3.4,4.7 2.2,3.6 2.3,7.1 0.3,10.5 -4,6.2 -10.2,10.3 -18.6,12.1 -2.7,0.5 -5.4,0.8 -8.3,0.8 -3.1,0 -6.1,-0.3 -9.1,-1.1 -2.7,-0.6 -5.4,-1.4 -7.7,-2.4 -9.6,-3.9 -14.4,-12.4 -14.4,-25.7 v -3.7 l -25.3,2.1 -0.1,1.6 c 0,0.5 0,1 0.1,1.5 -0.1,1.5 -0.1,3 -0.1,4.4 0,0.1 0,0.5 0.1,1.4 0,0.9 0,2 0,3.4 0.1,1.4 0.3,2.8 0.6,4.4 0.2,1.5 0.4,3.2 0.7,4.8 0.2,1.1 0.4,2.2 0.6,3.2 2.3,8.4 6.7,14.9 13.1,19.3 2.5,1.7 5.1,3.1 8,4.4 0.8,0.3 1.5,0.5 2.3,0.8 2.7,0.9 5.6,1.8 8.5,2.7 3,0.7 6,1.2 9.1,1.7 3.1,0.4 6.4,0.5 9.6,0.6 2.9,0 5.8,-0.1 8.6,-0.1 3.3,-0.1 6.6,-0.4 10,-1.1 3,-0.4 6,-1 8.8,-1.7 2.8,-0.7 5.5,-1.6 8.1,-2.7 2.6,-1 5.1,-2.4 7.4,-4 0.9,-0.6 1.8,-1.3 2.7,-1.9 6.6,-4.9 11,-12.1 13.1,-21.4 0.7,-3.2 1.2,-6.4 1.4,-9.7 0.1,-3.1 -0.2,-6.1 -0.7,-9.1 -2,-12 -7.5,-20.4 -16.8,-25.2 -9.4,-4.9 -19.2,-9.1 -29.6,-12.4 -8.3,-2.8 -14.6,-7.3 -19.1,-13.5 -0.6,-1 -1.3,-2.2 -1.9,-3.3 -0.4,-0.7 -0.6,-1.5 -0.7,-2.4 -0.2,-1 -0.1,-2 0.1,-3.1 0.2,-1.2 0.7,-2.3 1.4,-3.4 0.6,-1 1.3,-2 2.1,-2.9 0.4,-0.4 0.8,-0.9 1.3,-1.3 2.7,-2.3 6.1,-4.1 10.2,-5.1 1.5,-0.3 3,-0.5 4.4,-0.7 4.1,-0.5 8,-0.3 11.8,0.7 6.4,1.5 11.5,4.2 15.3,8.2 0,0 0,0 0.1,0 1.8,12.6 4.9,23.8 9.2,33.8 4.4,10.1 9.5,19.2 15.7,27.5 6.2,8.3 13.1,15.6 20.8,22.3 7.8,6.6 16.4,12.3 25.8,17.3 7.1,3.7 14.9,6.7 23.2,9.1 2.8,0.9 5.6,1.6 8.5,2.3 4.9,1.1 10,2 15.3,2.6 5.3,0.6 10.8,1 16.5,1.1 5.6,0.1 11.2,0 16.9,-0.4 5.7,-0.5 11.3,-1.4 16.9,-2.8 5.7,-1.3 11.5,-3 17.2,-4.9 5.2,-1.9 10.3,-4.3 15.2,-6.9 5.1,-2.6 9.9,-5.5 14.6,-8.6 8.5,-5.9 16.2,-12.5 23.2,-20 6.8,-7.4 12.9,-15.7 18.2,-24.9 5.1,-9.2 9.3,-19.3 12.3,-30.5 1.3,-4.6 2.4,-9.4 3.1,-14.5 1.2,-6.1 1.9,-12.3 2,-18.6 0,-0.3 0,-0.6 0,-0.9 h 34 c 0.2,-10.6 0.3,-21.5 0.2,-32.4 6.1,-6.5 11.5,-12.3 16.4,-17.6 0.1,0 0.1,0 0.1,0 5,9.5 9.8,19 14.7,28.5 3.6,7.1 7.3,14.1 11.1,21.2 l 0.2,0.3 h 63.5 c -8.3,-13.7 -15.1,-24.9 -20.3,-33.4 -5.5,-8.9 -11,-17.8 -16.5,-26.7 -5.4,-8.9 -10.8,-17.9 -16.2,-26.9 7.2,-7.2 14.2,-14.4 21.3,-21.8 7.1,-7.3 14.1,-14.6 21.1,-22 0.1,0 0.1,-0.1 0.3,-0.2 l 3.7,-3.9 0.1,-0.1 z m -443.1,27.6 c 2,0 3.2,0.1 3.3,0.1 0.3,0 0.4,0 0.4,0 5.5,0.5 9.6,2.3 12.3,5.6 2.6,2.9 3,6 1,9.2 -0.2,0.4 -0.5,0.7 -0.8,1.1 -2.7,3.8 -7.1,5.8 -13.1,6.3 -0.1,0 -0.4,0 -1.1,0 -0.7,0 -1,0 -1.2,0.1 -0.1,0 0,0 0.3,0 -0.1,0 -0.2,0 -0.3,0 -0.5,0 -1,0 -1.6,0 0,0 0,0 -0.1,0 -1.5,0 -3.1,0 -4.7,0 v -0.1 c 0,-7.5 0,-14.9 0,-22.3 1.7,0 3.3,0 5,0 0.1,0 0.2,0 0.2,0 0.1,0 0.2,0 0.4,0 z m 35.5,55.8 c 1.9,-0.4 3.7,-1 5.4,-1.6 0.1,0 0.1,0 0.2,0 -2.8,7.9 -4.9,16.7 -6.2,26.1 l -1.2,11.5 v 0.1 c 0,0.4 0,0.6 -0.1,0.6 -0.9,0.3 -1.9,0.5 -3,0.5 h -0.9 c -4.9,-0.5 -9.8,-0.7 -14.8,-0.8 -5.6,-0.1 -11.2,0.2 -16.7,0.8 -1.3,0.1 -2.5,0.4 -3.8,0.5 0,-0.1 0,-0.1 0,-0.1 l -0.1,-17.9 c 0,-6 0.1,-12 0.1,-17.9 4.4,0 8.6,0 12.3,0.1 0.8,0.1 1.5,0.1 2.3,0.1 3.6,-0.1 7.2,-0.1 10.9,0 3.8,0 7.4,-0.3 11,-1 1.5,-0.3 3.1,-0.6 4.6,-1 z"
   id="path19"
   style="fill:#81ac00;fill-opacity:1" /><path
   id="path28"
   d="M 640.843,235.428 L 640.843,235.428 C 645.443,236.228 650.043,236.828 654.843,237.328 C 654.843,237.428 654.843,237.428 654.843,237.528 C 651.443,248.528 645.943,257.228 638.343,263.928 C 639.443,263.428 640.443,262.728 641.643,261.728 C 649.343,255.028 654.843,246.128 658.143,235.228 L 658.043,235.228 C 652.643,234.628 647.243,234.128 641.943,233.528 C 641.843,233.528 641.843,233.528 641.743,233.628 C 641.343,234.028 641.043,234.628 640.843,235.428 z"
   style="fill:#567300;fill-opacity:1" /><path
   id="path32"
   d="M 768.943,235.928 C 768.843,236.628 768.443,237.328 768.143,237.928 C 768.043,237.928 768.043,238.028 768.043,238.028 C 772.643,238.628 777.243,239.128 781.943,239.528 L 781.943,239.628 C 779.843,246.428 776.543,252.128 772.443,256.828 C 769.643,259.828 767.043,262.228 764.743,263.928 C 764.943,263.928 765.043,263.828 765.243,263.728 C 768.143,261.628 770.943,259.328 773.443,256.828 C 778.543,251.728 782.443,245.528 785.243,238.228 C 785.343,238.028 785.343,237.928 785.343,237.628 C 779.943,237.028 774.643,236.428 769.143,235.928 C 769.144,235.928 769.043,235.928 768.943,235.928 z"
   style="fill:#567300;fill-opacity:1" /><path
   id="path22"
   d="M 659.943,3.928 L 659.943,5.528 C 659.943,19.428 659.943,33.228 659.943,47.028 C 659.943,61.328 659.943,75.728 659.943,90.128 C 659.943,104.528 659.943,118.828 659.943,133.228 C 659.943,135.328 659.943,137.328 660.143,139.228 L 702.143,139.228 C 702.143,135.328 702.143,131.528 702.143,127.628 C 702.143,113.228 702.143,98.528 702.143,83.328 C 713.743,87.228 721.543,92.828 725.643,100.028 C 729.743,107.228 733.143,113.628 736.043,119.628 C 738.843,125.528 742.143,132.028 746.043,139.228 L 793.443,139.228 C 791.543,135.628 789.743,131.828 787.743,128.228 C 782.943,118.728 778.043,109.228 773.243,99.728 C 768.443,90.228 760.743,83.528 750.143,79.628 C 754.243,78.628 758.043,77.328 761.543,75.728 C 771.343,71.228 777.543,63.328 780.143,52.228 C 783.643,38.228 781.943,26.828 775.343,18.128 C 770.543,11.828 763.543,7.728 754.543,5.828 C 749.943,5.028 745.443,4.528 740.943,4.428 C 739.343,4.328 737.743,4.328 736.043,4.228 L 659.943,3.928 z M 683.843,23.528 C 675.543,30.428 668.943,37.628 664.143,45.028 C 664.143,45.028 664.143,44.928 664.143,44.828 C 664.143,32.528 664.143,20.228 664.143,7.828 C 678.443,7.828 692.943,7.828 707.243,7.828 C 709.143,7.828 711.043,7.828 712.943,7.828 C 714.043,8.028 713.843,8.328 712.143,8.828 C 701.043,12.028 691.743,16.928 683.843,23.528 z M 730.343,32.528 C 732.943,33.228 735.243,34.628 737.043,36.728 C 738.943,39.228 739.943,41.828 739.943,44.928 C 739.943,47.728 738.843,50.228 736.843,52.328 C 736.543,52.528 736.443,52.628 736.243,52.828 C 735.943,53.128 735.643,53.328 735.343,53.628 C 734.343,54.528 733.143,55.228 731.943,55.828 C 730.543,56.628 729.143,57.228 727.843,57.628 C 726.343,58.228 724.743,58.528 722.943,58.728 C 721.643,58.828 720.343,59.028 718.843,59.028 C 717.243,59.028 715.743,59.028 714.143,59.028 C 713.243,59.028 712.343,59.028 711.343,59.128 C 709.443,59.028 707.543,59.028 705.743,59.028 C 705.343,59.028 704.943,59.028 704.543,59.028 C 703.843,59.028 703.143,59.028 702.543,59.028 C 702.443,59.028 702.343,59.028 702.143,59.028 L 702.143,33.828 C 702.143,33.028 702.143,32.228 702.143,31.328 L 703.443,31.328 C 716.643,30.828 725.443,31.128 729.743,32.328 C 729.943,32.328 730.043,32.428 730.343,32.528 z"
   style="fill:#567300;fill-opacity:1" /><path
   id="path24"
   d="M 629.343,32.828 C 629.343,32.728 629.343,32.628 629.343,32.628 C 629.343,23.128 629.343,13.528 629.343,3.928 C 620.543,3.928 611.843,3.928 603.043,3.928 C 588.743,3.928 574.343,3.928 559.943,3.928 C 545.643,3.928 531.243,3.928 516.943,3.928 C 516.943,18.228 516.943,32.628 516.943,47.028 C 516.943,61.328 516.943,75.728 516.943,90.128 C 516.943,104.528 516.943,118.828 516.943,133.228 C 516.943,135.228 516.943,137.228 516.943,139.228 L 631.343,139.228 C 631.443,129.028 631.443,118.828 631.343,108.728 C 621.543,108.728 611.743,108.728 601.943,108.728 C 587.643,108.728 573.243,108.728 558.943,108.728 L 558.943,108.628 C 558.943,99.728 558.943,91.028 558.943,82.228 C 573.243,82.228 587.643,82.228 601.943,82.228 C 609.543,82.328 617.043,82.228 624.343,82.028 L 624.343,81.828 C 624.343,72.628 624.343,63.528 624.343,54.328 C 616.843,54.328 609.443,54.328 601.943,54.328 C 587.643,54.328 573.243,54.328 558.943,54.328 L 558.943,54.228 C 558.943,47.128 558.943,40.028 558.943,32.828 C 567.943,32.828 577.043,32.828 586.143,32.828 C 600.543,32.828 614.943,32.828 629.343,32.828 z M 520.843,51.028 C 520.843,36.628 520.843,22.228 520.843,7.828 C 535.143,7.828 549.543,7.828 563.943,7.828 C 572.543,7.828 581.143,7.828 589.843,7.828 C 590.743,8.028 589.943,8.528 587.543,9.328 C 576.743,12.828 567.043,17.528 558.743,23.528 C 550.343,29.528 542.943,36.528 536.743,44.528 C 530.343,52.628 525.043,61.628 520.843,71.728 C 520.843,64.828 520.843,57.928 520.843,51.028 z"
   style="fill:#567300;fill-opacity:1" /><path
   id="path26"
   d="M 662.243,201.628 L 664.143,201.428 C 664.343,197.228 663.743,193.228 662.443,189.228 C 661.743,186.928 660.843,184.928 659.743,183.128 C 656.343,177.528 651.143,173.628 644.443,171.228 C 642.843,170.828 641.343,170.428 639.743,170.128 C 636.843,169.528 633.843,169.228 630.743,169.128 C 627.443,169.128 624.143,169.228 620.843,169.628 C 617.043,170.228 613.743,171.228 610.643,172.628 C 600.843,177.128 593.243,183.928 588.043,193.028 C 583.843,200.428 580.843,209.128 579.143,219.028 C 578.943,220.228 578.743,221.428 578.543,222.628 C 578.443,223.828 578.343,225.028 578.243,226.228 C 578.143,227.228 578.043,228.228 578.043,229.328 L 578.043,229.428 C 577.943,230.628 577.943,231.928 577.943,233.128 C 577.943,233.628 577.943,234.128 577.943,234.628 L 577.943,234.828 C 582.443,234.828 586.943,234.828 591.443,234.828 L 591.543,234.828 C 591.543,236.228 591.743,238.028 591.843,240.328 L 591.843,239.628 C 592.543,253.228 599.643,259.928 613.143,259.728 C 616.543,259.628 619.443,258.828 621.743,257.228 C 612.443,259.128 605.543,257.628 601.443,252.828 C 601.143,252.628 600.943,252.328 600.743,252.028 C 598.943,249.628 597.543,246.328 596.943,242.328 C 594.643,228.528 595.443,216.228 599.443,205.228 C 603.443,194.528 610.743,187.628 621.543,184.628 C 630.443,182.028 637.443,183.128 642.443,187.828 C 645.843,191.028 647.543,195.928 647.543,202.528 C 652.543,202.228 657.443,201.928 662.243,201.628 z"
   style="fill:#567300;fill-opacity:1" /><path
   id="path30"
   d="M 777.144,176.928 C 774.844,175.128 772.144,173.728 769.344,172.628 C 757.244,167.828 745.444,168.028 733.844,173.128 C 723.944,177.428 716.144,184.028 710.744,192.928 C 705.344,201.728 701.844,212.728 700.444,225.628 C 700.444,225.728 700.444,225.828 700.444,225.828 C 700.344,228.928 700.444,231.928 700.544,234.828 C 700.644,234.828 700.744,234.828 700.744,234.828 C 705.144,234.828 709.544,234.828 714.044,234.828 C 714.444,241.528 716.344,246.828 719.444,250.828 C 727.144,260.328 737.144,262.028 749.544,255.828 C 742.444,258.628 735.844,258.228 729.544,254.828 C 720.244,249.528 716.344,239.528 717.844,224.428 C 727.544,224.428 737.344,224.428 747.044,224.428 C 761.444,224.428 775.844,224.428 790.144,224.428 C 790.944,220.528 791.344,216.728 791.344,212.928 C 791.444,206.928 790.744,200.928 789.044,195.128 C 786.943,187.228 782.943,181.128 777.144,176.928 z M 761.343,184.128 C 763.243,184.928 765.143,186.028 766.943,187.428 C 769.843,189.428 771.943,192.228 773.443,195.628 C 775.143,199.928 775.943,205.228 775.443,211.428 C 761.343,211.628 749.443,211.628 739.943,211.528 C 730.343,211.428 723.843,211.328 720.443,211.128 C 722.943,202.428 727.043,195.628 732.943,190.628 C 734.743,189.028 736.643,187.628 738.743,186.428 C 740.343,185.428 741.943,184.728 743.443,184.128 C 749.743,181.628 755.644,181.628 761.343,184.128 z"
   style="fill:#567300;fill-opacity:1" /><path
   id="path34"
   d="M 368.843,171.128 C 366.943,180.228 365.043,189.428 363.143,198.428 C 360.643,210.328 358.143,222.228 355.643,234.128 C 358.043,233.928 359.543,231.528 360.243,226.928 C 361.143,221.228 362.243,215.428 363.543,209.628 C 362.743,218.028 361.543,226.428 360.043,234.628 L 360.043,234.828 C 363.043,234.828 366.043,234.828 369.143,234.828 C 369.143,234.828 369.243,234.828 369.343,234.828 C 368.443,238.528 367.843,242.628 367.543,246.828 C 367.543,246.928 367.543,247.528 367.543,248.628 C 367.643,249.528 367.743,250.228 367.743,250.828 C 368.143,253.328 369.343,255.028 371.043,256.128 C 379.243,260.728 387.343,260.628 395.343,255.628 C 393.343,256.228 391.343,256.828 389.143,257.228 C 377.343,259.328 371.643,255.528 371.843,245.528 C 371.943,244.628 372.043,243.828 372.043,242.828 C 372.343,240.328 372.743,237.928 373.043,235.428 L 373.143,234.328 C 374.043,228.528 374.943,222.928 376.043,217.228 C 376.643,213.628 377.343,210.128 378.143,206.628 C 380.743,194.928 383.143,183.028 385.643,171.128 C 385.543,171.128 385.543,171.128 385.543,171.128 C 379.943,171.128 374.343,171.128 368.843,171.128 z"
   style="fill:#567300;fill-opacity:1" /><path
   id="path36"
   d="M 440.343,206.628 C 442.843,194.828 445.343,182.928 447.843,171.128 C 447.743,171.128 447.643,171.128 447.543,171.128 C 442.043,171.128 436.443,171.128 430.843,171.128 C 428.943,180.828 427.043,190.428 425.343,200.128 C 423.043,212.428 419.943,223.828 416.043,234.328 C 416.943,234.328 417.643,234.328 418.143,234.328 C 418.743,234.328 419.043,234.328 419.043,234.328 C 421.343,229.228 423.043,223.628 424.343,217.528 C 424.443,217.528 424.443,217.428 424.443,217.428 C 424.043,223.328 423.043,229.028 421.743,234.628 L 421.743,234.828 C 424.843,234.828 428.043,234.828 431.243,234.828 C 431.343,234.828 431.343,234.828 431.443,234.828 C 429.343,245.428 427.143,255.928 424.943,266.328 L 424.243,269.328 L 427.043,269.428 L 427.843,266.328 C 429.543,258.328 431.143,250.328 432.843,242.328 C 435.343,230.428 437.843,218.528 440.343,206.628 z"
   style="fill:#567300;fill-opacity:1" /><path
   id="path38"
   d="M 513.543,190.628 C 514.843,184.228 516.143,177.628 517.443,171.128 C 517.443,171.128 517.343,171.128 517.243,171.128 C 512.343,171.128 507.543,171.128 502.743,171.128 C 500.843,180.128 498.843,189.128 497.043,198.228 C 494.543,209.928 492.043,222.228 489.343,234.928 L 501.843,234.928 C 501.943,234.828 502.043,234.828 502.143,234.828 C 502.243,234.828 502.343,234.828 502.343,234.828 C 500.343,244.628 498.343,254.328 496.343,263.928 L 495.143,269.328 L 498.043,269.428 L 499.243,263.928 C 500.043,260.428 500.743,256.828 501.443,253.328 C 503.843,241.328 506.343,229.528 509.243,218.028 C 512.043,206.528 517.343,197.428 524.943,190.628 C 531.843,184.428 539.643,183.528 548.443,187.928 C 548.543,187.928 548.543,187.928 548.543,187.928 C 550.843,182.728 553.043,177.628 555.343,172.528 C 549.943,169.028 543.643,168.628 536.543,171.228 C 526.543,175.028 518.943,181.528 513.743,190.628 L 513.543,190.628 z"
   style="fill:#567300;fill-opacity:1" /><path
   id="path40"
   d="M 3.943,225.428 C 3.843,228.628 4.043,231.728 4.443,234.628 L 4.443,234.628 C 7.943,234.928 11.443,234.928 15.243,234.828 C 15.243,234.828 15.343,234.828 15.443,234.828 C 16.343,231.828 17.543,228.928 18.643,226.028 C 17.543,240.328 22.043,249.828 32.143,254.528 C 34.843,255.728 37.943,256.728 41.343,257.428 C 47.943,258.628 54.443,258.728 61.043,258.028 C 66.443,257.328 70.843,255.928 74.243,253.628 C 73.743,253.828 73.143,254.028 72.643,254.228 C 59.443,257.728 47.143,257.228 35.843,252.428 C 25.643,248.228 20.843,238.628 21.743,223.928 C 21.643,223.928 21.543,223.928 21.543,223.928 C 15.643,224.328 9.743,224.928 3.943,225.428 z"
   style="fill:#567300;fill-opacity:1" /><path
   id="path42"
   d="M 474.144,26.028 C 481.144,18.628 488.144,11.328 495.144,3.928 C 490.944,3.928 486.744,3.928 482.444,3.928 C 468.044,3.928 453.744,3.928 439.344,3.928 C 438.044,5.528 436.844,7.028 435.544,8.528 C 428.844,16.228 422.144,23.928 415.544,31.628 C 408.944,39.428 402.344,47.228 395.744,54.928 C 395.544,52.428 395.344,49.728 395.344,47.028 C 395.544,32.628 395.544,18.228 395.544,3.928 L 395.344,3.928 C 381.544,3.928 367.232,3.928 353.432,3.928 C 353.382,5.303 353.344,5.528 353.344,6.628 C 353.444,21.028 353.544,35.328 353.544,49.728 C 353.644,57.428 353.644,65.128 353.744,72.628 L 353.344,92.628 C 352.844,90.828 352.144,89.128 351.544,87.528 C 347.344,77.228 342.344,68.028 336.244,59.628 C 330.144,51.228 323.344,43.728 315.744,37.128 C 308.044,30.328 299.544,24.528 290.244,19.528 C 280.844,14.528 270.544,10.528 259.144,7.528 C 259.344,10.328 259.744,13.228 260.244,15.928 L 260.344,15.928 C 271.344,19.228 281.444,23.628 290.544,28.828 C 299.744,34.128 307.844,40.228 315.144,47.328 C 322.344,54.528 328.744,62.528 334.044,71.528 C 339.444,80.428 343.644,90.628 346.644,102.028 C 348.144,107.728 349.044,114.128 349.544,121.028 C 345.844,110.328 341.244,100.628 335.844,91.628 C 330.344,82.728 324.044,74.628 317.044,67.328 C 310.044,60.028 302.144,53.428 293.544,47.628 C 285.044,41.828 275.544,37.028 265.044,33.028 C 264.544,32.828 264.144,32.628 263.744,32.528 C 266.444,43.628 268.344,55.728 269.544,69.128 L 269.544,69.228 C 269.544,71.628 269.544,73.928 269.544,76.228 C 269.544,76.328 269.544,76.428 269.544,76.528 C 269.344,81.828 268.844,86.928 267.944,91.728 C 265.844,103.828 261.744,114.128 255.644,122.328 C 252.544,126.528 248.544,129.428 243.744,131.228 C 231.044,135.828 221.344,133.228 214.644,123.528 C 208.744,115.128 205.744,103.628 205.744,89.328 L 205.744,89.228 C 205.744,88.728 205.744,88.228 205.744,87.728 L 205.744,87.628 C 205.744,85.828 205.744,84.128 205.744,82.328 C 206.644,68.828 209.044,56.828 212.944,46.528 C 215.644,39.428 218.744,32.728 222.244,26.528 L 222.344,26.228 C 222.844,25.428 223.344,24.528 223.844,23.628 C 223.744,23.628 223.744,23.628 223.544,23.628 L 213.044,23.028 C 212.644,23.028 212.144,23.028 211.644,23.028 C 208.644,23.028 205.644,23.128 202.544,23.228 C 199.344,23.328 196.444,23.628 193.644,24.028 C 182.344,25.528 172.244,27.728 163.144,30.828 C 172.044,25.328 181.844,20.828 192.844,17.528 C 196.644,16.328 200.644,15.328 204.744,14.528 C 205.844,14.328 207.044,14.228 208.144,14.028 C 209.244,13.828 210.444,13.628 211.644,13.528 C 212.744,13.328 213.944,13.228 215.144,13.028 C 216.244,12.928 217.544,12.828 218.744,12.728 C 219.844,12.528 221.044,12.528 222.144,12.528 C 223.444,12.428 224.744,12.428 225.944,12.428 C 226.544,12.328 227.144,12.328 227.744,12.328 C 228.544,12.328 229.244,12.328 230.044,12.328 C 230.044,12.328 230.044,12.328 230.044,12.228 C 231.644,9.528 232.844,6.728 233.744,3.928 C 233.344,3.828 233.044,3.828 232.744,3.828 C 218.044,3.528 205.144,4.828 193.744,7.928 C 182.344,11.028 172.144,15.028 162.844,20.128 C 153.644,25.228 145.144,31.228 137.644,38.028 C 130.144,44.728 123.344,52.328 117.444,60.828 C 117.444,60.328 117.444,59.828 117.544,59.528 C 120.644,45.728 119.444,33.628 114.144,23.228 C 109.244,13.828 100.744,8.228 88.344,6.428 C 75.944,4.628 62.444,3.728 47.744,3.728 C 42.944,3.728 38.244,3.728 33.544,3.728 L 4.244,3.828 L 4.244,8.428 C 4.244,21.328 4.244,34.228 4.244,47.028 C 4.244,61.328 4.244,75.728 4.244,90.128 C 4.244,104.528 4.244,118.828 4.244,133.228 C 4.244,133.228 4.244,133.328 4.244,133.528 L 4.244,139.628 L 35.344,139.628 L 35.544,139.628 C 35.544,139.628 35.644,139.628 35.744,139.628 C 35.744,139.728 35.744,139.728 35.744,139.728 C 35.544,139.828 35.444,139.928 35.344,140.028 C 33.744,141.028 32.344,142.128 30.944,143.328 C 29.744,144.428 28.644,145.628 27.544,146.928 C 27.144,147.628 26.744,148.228 26.344,148.828 C 26.044,149.128 25.844,149.428 25.744,149.728 C 25.344,150.328 25.044,150.928 24.644,151.528 C 24.044,152.628 23.544,153.828 23.144,155.128 C 22.844,156.328 22.444,157.528 22.144,158.628 C 21.844,159.628 21.744,160.628 21.544,161.628 C 21.344,162.528 21.344,163.428 21.244,164.228 C 21.144,165.028 21.144,165.828 21.244,166.628 C 21.344,167.728 21.344,168.928 21.444,170.228 C 21.544,171.428 21.744,172.628 21.944,173.928 C 22.144,174.928 22.344,175.928 22.644,176.928 C 22.844,177.928 23.144,178.728 23.544,179.728 C 23.744,180.528 24.044,181.328 24.444,182.128 C 24.944,183.228 25.544,184.228 26.144,185.228 C 26.744,186.228 27.344,187.228 27.944,188.128 C 30.344,191.328 33.344,193.928 36.944,195.928 C 46.044,201.228 55.844,205.628 66.344,209.228 C 77.144,212.928 84.844,219.728 89.244,229.428 C 90.044,231.128 90.244,232.928 90.144,234.828 C 94.244,234.828 98.444,234.828 102.744,234.828 C 102.744,234.828 102.744,234.828 102.844,234.828 C 103.744,227.928 102.944,221.928 100.444,217.228 L 100.544,217.228 C 106.744,228.228 106.744,239.428 100.444,251.028 C 99.244,253.328 97.744,255.528 96.144,257.528 L 91.944,261.828 L 92.644,261.328 L 97.344,257.528 C 101.144,253.528 104.044,248.728 105.744,243.028 C 109.944,229.528 108.044,218.828 99.944,210.828 C 92.744,203.628 83.944,197.928 73.644,193.928 C 68.544,191.928 63.444,190.228 58.344,188.628 C 48.944,185.928 42.844,180.128 39.844,171.428 C 39.544,170.328 39.244,169.228 38.944,168.228 C 38.744,167.128 38.544,165.928 38.644,164.728 C 38.744,163.628 38.944,162.528 39.344,161.428 C 39.944,159.628 40.744,158.128 41.644,156.728 L 41.844,156.528 C 46.044,150.328 53.144,146.928 63.144,146.428 C 77.244,145.828 87.744,149.028 94.444,156.228 C 96.344,168.628 99.444,179.928 103.744,189.928 C 108.144,199.928 113.344,209.028 119.444,217.328 C 125.644,225.528 132.544,232.928 140.244,239.528 C 148.044,246.228 156.644,252.028 166.044,257.028 C 175.544,261.828 186.044,265.628 197.644,268.428 C 209.644,271.228 222.744,272.128 237.144,271.028 C 250.344,270.028 262.344,267.628 272.744,263.728 C 283.344,259.928 292.844,255.028 301.344,249.328 C 305.244,246.628 309.044,243.828 312.544,240.928 L 314.044,239.628 C 317.844,236.428 321.344,233.028 324.744,229.528 C 331.644,222.128 337.844,213.928 343.044,204.828 C 348.444,195.728 352.744,185.728 355.944,174.628 C 359.044,164.228 360.744,152.628 361.244,139.628 C 362.044,139.628 362.844,139.628 363.744,139.628 L 395.444,139.628 L 395.444,137.828 C 395.544,127.228 395.544,116.728 395.544,106.428 C 402.544,99.128 409.644,91.828 416.644,84.528 C 416.844,84.328 417.044,84.128 417.044,83.828 C 422.044,93.228 426.844,102.728 431.744,112.228 C 436.344,121.228 441.044,130.228 445.744,139.228 L 497.244,139.228 C 496.544,137.928 495.744,136.628 495.044,135.328 C 489.444,126.528 483.944,117.628 478.544,108.628 C 473.044,99.828 467.544,90.928 462.144,82.028 C 456.744,73.128 451.344,64.128 446.044,55.128 C 448.244,52.628 450.544,50.228 452.844,47.828 C 460.043,40.628 467.043,33.228 474.144,26.028 z M 357.644,55.628 C 357.644,54.128 357.644,52.528 357.644,51.028 C 357.644,36.628 357.644,22.228 357.644,7.828 C 368.844,7.828 380.144,7.828 391.344,7.828 C 391.444,7.828 391.544,7.828 391.544,7.828 C 391.544,10.028 391.544,12.028 391.544,14.228 L 391.544,14.328 C 384.144,18.128 378.044,23.228 373.144,29.528 C 366.644,38.028 361.443,46.728 357.644,55.628 z M 46.443,61.328 C 46.443,51.428 46.443,41.528 46.443,31.628 C 50.643,31.628 54.843,31.628 59.043,31.628 C 59.043,31.628 59.143,31.628 59.243,31.628 C 61.343,31.628 63.143,31.728 64.943,32.128 C 67.343,32.328 69.443,33.128 71.243,34.328 C 76.643,38.028 78.443,43.128 76.843,49.428 C 75.143,55.928 71.243,59.728 65.143,61.028 C 63.443,61.228 61.843,61.528 59.943,61.628 L 59.843,61.628 C 55.343,61.628 50.943,61.628 46.443,61.628 C 46.443,61.528 46.443,61.428 46.443,61.328 z M 107.343,77.528 C 102.443,87.128 98.743,97.728 96.143,109.528 C 94.443,116.728 93.643,122.628 93.543,127.328 C 93.443,132.028 93.443,134.428 93.343,134.628 C 93.243,134.928 93.243,135.128 93.243,135.128 C 93.143,135.128 93.143,135.128 93.143,135.228 C 90.743,134.628 87.943,134.128 84.643,133.428 C 71.143,130.628 58.443,131.028 46.443,134.628 C 46.443,133.828 46.443,133.128 46.443,132.228 C 46.443,117.928 46.443,103.628 46.443,89.228 C 61.443,89.828 75.143,89.028 87.643,86.728 C 95.644,85.228 102.144,82.228 107.343,77.528 z M 297.144,220.328 C 300.844,222.828 302.644,225.428 302.644,228.428 C 302.644,234.228 295.344,239.128 280.744,243.228 C 266.044,247.328 248.444,249.328 227.744,249.328 C 210.544,249.328 195.344,247.928 182.344,245.028 C 190.044,248.828 198.344,251.828 207.344,254.228 C 213.844,255.828 220.844,257.028 228.444,257.528 C 233.244,258.128 238.144,258.228 242.944,257.828 C 247.144,257.728 251.344,257.328 255.544,256.628 C 266.344,255.128 276.244,252.728 285.044,249.528 C 279.444,252.628 273.344,255.328 266.744,257.628 C 256.144,261.228 243.744,263.128 229.744,263.328 C 215.244,263.628 202.544,262.128 191.644,258.728 C 180.644,255.328 170.644,250.928 161.744,245.528 C 152.844,240.028 144.744,233.628 137.644,226.428 C 130.444,219.228 124.144,211.128 118.844,202.128 C 113.444,193.228 109.144,183.128 105.844,172.028 C 102.644,160.928 101.044,148.128 101.244,133.628 C 101.444,133.028 101.444,132.228 101.444,131.328 L 101.444,131.228 C 101.444,131.228 101.444,131.128 101.444,131.028 C 101.444,130.128 101.444,129.228 101.444,128.328 C 102.744,115.228 105.244,103.528 109.144,93.128 C 113.144,82.828 118.044,73.628 124.044,65.528 C 119.144,75.028 115.344,85.528 112.444,97.028 C 109.644,108.628 108.644,121.828 109.544,136.328 C 110.444,149.628 112.744,161.628 116.644,172.128 C 120.444,182.628 125.344,192.128 131.144,200.628 C 136.844,209.228 143.544,216.928 151.044,223.828 C 151.744,224.528 152.644,225.328 153.344,226.028 C 155.144,221.228 162.244,217.028 174.844,213.528 C 189.544,209.428 207.144,207.428 227.744,207.428 C 246.644,207.428 262.844,209.028 276.744,212.428 C 278.044,212.828 279.344,213.228 280.744,213.528 C 288.043,215.528 293.543,217.928 297.144,220.328 z M 57.843,7.828 C 62.043,7.828 66.243,7.828 70.443,7.828 C 76.743,7.928 83.143,8.328 89.743,9.228 C 98.643,11.028 105.143,15.228 109.443,21.628 C 113.243,27.228 115.143,34.428 115.443,43.428 C 115.443,44.728 115.443,46.228 115.443,47.528 C 115.443,47.628 115.443,47.628 115.443,47.728 C 115.443,47.728 115.443,47.828 115.443,47.928 C 115.443,53.028 114.643,57.428 113.243,61.228 C 111.243,55.228 108.743,49.728 105.843,44.728 C 100.543,35.728 93.743,28.128 85.643,21.828 C 77.443,15.628 67.743,11.028 56.543,7.828 C 56.943,7.828 57.243,7.828 57.543,7.828 C 57.643,7.828 57.743,7.828 57.843,7.828 z"
   style="fill:#567300;fill-opacity:1" />

</svg>