<?xml version="1.0" encoding="UTF-8" standalone="no"?>
<!-- Generator: Adobe Illustrator 13.0.0, SVG Export Plug-In . SVG Version: 6.00 Build 14948)  -->

<svg
   xmlns:dc="http://purl.org/dc/elements/1.1/"
   xmlns:cc="http://creativecommons.org/ns#"
   xmlns:rdf="http://www.w3.org/1999/02/22-rdf-syntax-ns#"
   xmlns:svg="http://www.w3.org/2000/svg"
   xmlns="http://www.w3.org/2000/svg"
   xmlns:sodipodi="http://sodipodi.sourceforge.net/DTD/sodipodi-0.dtd"
   xmlns:inkscape="http://www.inkscape.org/namespaces/inkscape"
   version="1.1"
   x="0px"
   y="0px"
   width="280"
   height="280"
   viewBox="0 0 280 280"
   enable-background="new 0 0 800.7 276.759"
   xml:space="preserve"
   id="svg2"
   sodipodi:version="0.32"
   inkscape:version="0.47 r22583"
   sodipodi:docname="logo-circle.svg"
   inkscape:output_extension="org.inkscape.output.svg.inkscape"
   inkscape:export-filename="/home/loic/private/outflop/pokersource/logo poker NB/logo-circle-16x16.png"
   inkscape:export-xdpi="5.1399999"
   inkscape:export-ydpi="5.1399999"><metadata
   id="metadata47"><rdf:RDF><cc:Work
       rdf:about=""><dc:format>image/svg+xml</dc:format><dc:type
         rdf:resource="http://purl.org/dc/dcmitype/StillImage" /><dc:title></dc:title></cc:Work></rdf:RDF></metadata><defs
   id="defs45"><inkscape:perspective
   sodipodi:type="inkscape:persp3d"
   inkscape:vp_x="0 : 138.3795 : 1"
   inkscape:vp_y="0 : 1000 : 0"
   inkscape:vp_z="800.70001 : 138.3795 : 1"
   inkscape:persp3d-origin="400.35001 : 92.253001 : 1"
   id="perspective49" />
	
	
	
	
	
	
	
	
	
	
	

	

		
		
		
		
		
		
		
	<inkscape:perspective
   id="perspective3669"
   inkscape:persp3d-origin="0.5 : 0.33333333 : 1"
   inkscape:vp_z="1 : 0.5 : 1"
   inkscape:vp_y="0 : 1000 : 0"
   inkscape:vp_x="0 : 0.5 : 1"
   sodipodi:type="inkscape:persp3d" /><inkscape:perspective
   id="perspective3734"
   inkscape:persp3d-origin="0.5 : 0.33333333 : 1"
   inkscape:vp_z="1 : 0.5 : 1"
   inkscape:vp_y="0 : 1000 : 0"
   inkscape:vp_x="0 : 0.5 : 1"
   sodipodi:type="inkscape:persp3d" /></defs><sodipodi:namedview
   inkscape:window-height="815"
   inkscape:window-width="1367"
   inkscape:pageshadow="2"
   inkscape:pageopacity="0.0"
   guidetolerance="10.0"
   gridtolerance="10.0"
   objecttolerance="10.0"
   borderopacity="1.0"
   bordercolor="#666666"
   pagecolor="#ffffff"
   id="base"
   showgrid="false"
   inkscape:zoom="1.9534409"
   inkscape:cx="201.53853"
   inkscape:cy="132.49083"
   inkscape:window-x="0"
   inkscape:window-y="27"
   inkscape:current-layer="svg2"
   inkscape:window-maximized="0" />
<path
   style="fill:#81ac00;fill-opacity:1"
   d="m 141.67641,4.9478301 c -1.59265,-0.022169 -3.18515,-0.00708 -4.78125,0.03125 C 100.21332,5.2702474 64.256469,21.025241 39.270159,47.51033 5.2224084,82.453 -6.9635696,136.54359 8.6139074,182.66658 c 6.1986616,19.63406 17.2363916,37.41652 31.5312516,52.09375 0.22127,0.22719 0.43342,0.46182 0.65625,0.6875 0.15185,0.15102 0.31619,0.28718 0.46875,0.4375 24.91528,24.54883 59.317361,39.75 97.343751,39.75 42.6029,0 80.70569,-19.06558 105.96875,-49 0.10244,-0.12591 0.21054,-0.24869 0.3125,-0.375 0.9271,-1.14849 1.83173,-2.31821 2.71875,-3.5 31.50346,-40.21221 36.66803,-98.67809 12.8125,-143.78125 C 238.3865,35.166984 191.04842,5.6350822 141.67641,4.9478301 z"
   id="path19" /><path
   style="fill:#567300;fill-opacity:1"
   d="m 137.70766,6.6353301 c -13.63416,0 -26.80265,2.0353893 -39.187501,5.8437499 -0.27097,0.08332 -0.54227,0.164996 -0.8125,0.25 -0.90489,0.284647 -1.79106,0.602908 -2.6875,0.90625 -1.03075,0.34879 -2.04325,0.689318 -3.0625,1.0625 -1.01925,0.373182 -2.0551,0.759025 -3.0625,1.15625 -49.36262,19.464004 -84.2812516,67.595244 -84.2812516,123.875 0,73.50825 59.5855016,133.09375 133.0937526,133.09375 73.50825,0 133.09375,-59.5855 133.09375,-133.09375 0,-62.327616 -42.84672,-114.651716 -100.6875,-129.125 0.20681,2.694496 0.58273,5.471717 1.0625,8.0625 l 0.0937,0 c 11,3.3 21.0875,7.675 30.1875,12.875 9.2,5.3 17.325,11.4 24.625,18.5 7.2,7.2 13.575,15.21875 18.875,24.21875 5.4,8.9 9.625,19.1 12.625,30.5 1.5,5.7 2.375,12.1 2.875,19 -3.7,-10.7 -8.2875,-20.40625 -13.6875,-29.40625 -5.5,-8.9 -11.8125,-17.0125 -18.8125,-24.3125 -7,-7.3 -14.9,-13.8875 -23.5,-19.6875 -8.5,-5.8 -18,-10.59375 -28.5,-14.59375 -0.5,-0.2 -0.88125,-0.4 -1.28125,-0.5 2.7,11.1 4.58125,23.19375 5.78125,36.59375 l 0,0.09375 0,7 0,0.3125 c -0.2,5.3 -0.69375,10.3875 -1.59375,15.1875 -2.1,12.1 -6.18125,22.39375 -12.28125,30.59375 -3.1,4.2 -7.10625,7.10625 -11.90625,8.90625 -12.7,4.6 -22.39375,2.0125 -29.09375,-7.6875 -5.9,-8.4 -8.90625,-19.91875 -8.90625,-34.21875 l 0,-0.09375 0,-1.5 0,-0.09375 0,-5.3125 c 0.9,-13.5 3.2875,-25.48125 7.1875,-35.78125 2.7,-7.1 5.8125,-13.8 9.3125,-20 l 0.0937,-0.3125 c 0.5,-0.8 1,-1.69375 1.5,-2.59375 l -0.3125,0 -10.5,-0.59375 -1.375,0 c -3,0 -6.025,0.0875 -9.125,0.1875 -3.2,0.1 -6.075,0.4125 -8.875,0.8125 -11.300001,1.5 -21.400001,3.68125 -30.500001,6.78125 8.9,-5.5 18.6875,-9.98125 29.687501,-13.28125 3.8,-1.2 7.80625,-2.2 11.90625,-3 1.1,-0.2 2.30625,-0.3 3.40625,-0.5 1.1,-0.2 2.3,-0.4 3.5,-0.5 1.1,-0.2 2.3,-0.3 3.5,-0.5 1.1,-0.1 2.39375,-0.2125 3.59375,-0.3125 1.1,-0.2 2.30625,-0.1875 3.40625,-0.1875 1.3,-0.1 2.58125,-0.09375 3.78125,-0.09375 0.6,-0.1 1.2125,-0.125 1.8125,-0.125 l 2.28125,0 0,-0.09375 c 1.56975,-2.648958 2.76142,-5.3786492 3.65625,-8.1249999 -2.28902,-0.1170845 -4.58811,-0.1875 -6.90625,-0.1875 z M 34.957659,68.26033 c -4.9,9.5 -8.69375,20 -11.59375,31.5 -2.8,11.6 -3.80625,24.78125 -2.90625,39.28125 0.9,13.3 3.225,25.3125 7.125,35.8125 3.8,10.5 8.7,20 14.5,28.5 5.7,8.6 12.375,16.2875 19.875,23.1875 0.7,0.7 1.6125,1.51875 2.3125,2.21875 1.8,-4.8 8.9,-9 21.5,-12.5 14.700001,-4.1 32.306251,-6.09375 52.906251,-6.09375 18.9,0 35.1,1.6 49,5 1.3,0.4 2.6,0.79375 4,1.09375 7.299,2 12.80525,4.38125 16.40625,6.78125 3.7,2.5 5.5,5.125 5.5,8.125 0,5.8 -7.30625,10.68125 -21.90625,14.78125 -14.7,4.1 -32.3,6.09375 -53,6.09375 -17.2,0 -32.40625,-1.38125 -45.406251,-4.28125 7.700001,3.8 16.000001,6.7875 25.000001,9.1875 6.5,1.6 13.49375,2.8125 21.09375,3.3125 4.8,0.6 9.7,0.68125 14.5,0.28125 4.2,-0.1 8.39375,-0.4875 12.59375,-1.1875 10.8,-1.5 20.7,-3.89375 29.5,-7.09375 -5.6,3.1 -11.68125,5.79375 -18.28125,8.09375 -10.6,3.6 -23,5.4875 -37,5.6875 -14.5,0.3 -27.19375,-1.19375 -38.09375,-4.59375 -11.000001,-3.4 -21.006251,-7.7875 -29.906251,-13.1875 -8.9,-5.5 -16.99375,-11.89375 -24.09375,-19.09375 -7.2,-7.2 -13.5125,-15.3125 -18.8125,-24.3125 -5.4,-8.9 -9.7,-18.99375 -13,-30.09375 -3.2,-11.1 -4.79375,-23.90625 -4.59375,-38.40625 0.2,-0.6 0.1875,-1.4125 0.1875,-2.3125 l 0,-0.0937 0,-0.1875 0,-2.71875 c 1.3,-13.1 3.81875,-24.7875 7.71875,-35.1875 4,-10.3 8.875,-19.49375 14.875,-27.59375 z"
   id="path42" />

</svg>